<svg width="234" height="71" viewBox="0 0 234 71" fill="none" xmlns="http://www.w3.org/2000/svg">
<path d="M5.754 0.969999C6.55667 0.969999 7.20533 1.07267 7.7 1.278C8.204 1.48333 8.60067 1.80067 8.89 2.23C9.07667 2.51933 9.22133 2.846 9.324 3.21C9.42667 3.574 9.478 3.994 9.478 4.47C9.478 4.88067 9.44067 5.29133 9.366 5.702C9.29133 6.11267 9.184 6.50933 9.044 6.892C8.91333 7.26533 8.75 7.62 8.554 7.956C8.36733 8.28267 8.15733 8.572 7.924 8.824C7.48533 9.3 6.97667 9.636 6.398 9.832C5.82867 10.0187 5.124 10.112 4.284 10.112C3.472 10.112 2.81867 10.028 2.324 9.86C1.82933 9.692 1.43733 9.42133 1.148 9.048C0.942667 8.78667 0.779333 8.45533 0.658 8.054C0.546 7.65267 0.49 7.14867 0.49 6.542C0.49 5.506 0.672 4.582 1.036 3.77C1.40933 2.94867 1.93667 2.3 2.618 1.824C3.02867 1.53467 3.486 1.32 3.99 1.18C4.494 1.04 5.082 0.969999 5.754 0.969999ZM4.172 9.132C4.38667 9.132 4.58733 9.03867 4.774 8.852C4.97 8.656 5.14733 8.39933 5.306 8.082C5.474 7.75533 5.62333 7.38667 5.754 6.976C5.894 6.56533 6.01067 6.14067 6.104 5.702C6.19733 5.26333 6.26733 4.82933 6.314 4.4C6.37 3.96133 6.398 3.56467 6.398 3.21C6.398 2.72467 6.34667 2.39333 6.244 2.216C6.15067 2.02933 6.01067 1.936 5.824 1.936C5.60933 1.936 5.404 2.02933 5.208 2.216C5.012 2.40267 4.82533 2.65467 4.648 2.972C4.48 3.28 4.326 3.63933 4.186 4.05C4.05533 4.45133 3.93867 4.86667 3.836 5.296C3.74267 5.72533 3.668 6.15 3.612 6.57C3.56533 6.99 3.542 7.37733 3.542 7.732C3.542 8.264 3.598 8.63267 3.71 8.838C3.83133 9.034 3.98533 9.132 4.172 9.132ZM13.336 4.876C13.532 4.68933 13.7513 4.51667 13.994 4.358C14.2087 4.22733 14.4653 4.106 14.764 3.994C15.0627 3.882 15.3987 3.826 15.772 3.826C16.22 3.826 16.5513 3.92867 16.766 4.134C16.99 4.33933 17.116 4.59133 17.144 4.89H17.228C17.4427 4.694 17.676 4.51667 17.928 4.358C18.1427 4.22733 18.3947 4.106 18.684 3.994C18.9733 3.882 19.2813 3.826 19.608 3.826C20.0933 3.826 20.4853 3.96133 20.784 4.232C21.092 4.49333 21.246 4.834 21.246 5.254C21.246 5.46867 21.2087 5.75333 21.134 6.108C21.0593 6.46267 20.9753 6.85 20.882 7.27L20.294 10H17.536L18.292 6.346C18.32 6.206 18.348 6.07067 18.376 5.94C18.404 5.80933 18.418 5.702 18.418 5.618C18.418 5.48733 18.3807 5.38 18.306 5.296C18.2313 5.20267 18.124 5.156 17.984 5.156C17.8067 5.156 17.6387 5.22133 17.48 5.352C17.3307 5.47333 17.214 5.576 17.13 5.66L16.22 10H13.602L14.372 6.346C14.3907 6.22467 14.414 6.10333 14.442 5.982C14.47 5.85133 14.484 5.73467 14.484 5.632C14.484 5.492 14.4467 5.38 14.372 5.296C14.3067 5.20267 14.204 5.156 14.064 5.156C13.896 5.156 13.7327 5.21667 13.574 5.338C13.4247 5.45933 13.308 5.562 13.224 5.646L12.3 10H9.44398L10.718 3.98H13L13.252 4.876H13.336ZM25.3946 4.876C25.5906 4.68933 25.8099 4.51667 26.0526 4.358C26.2672 4.22733 26.5192 4.106 26.8086 3.994C27.0979 3.882 27.4199 3.826 27.7746 3.826C28.2599 3.826 28.6612 3.952 28.9786 4.204C29.2959 4.44667 29.4546 4.78267 29.4546 5.212C29.4546 5.33333 29.4406 5.48267 29.4126 5.66C29.3846 5.828 29.3519 6.00533 29.3146 6.192C29.2772 6.37867 29.2352 6.57 29.1886 6.766C29.1512 6.95267 29.1186 7.12067 29.0906 7.27L28.5026 10H25.6606L26.4306 6.346C26.4492 6.22467 26.4726 6.10333 26.5006 5.982C26.5286 5.85133 26.5426 5.73467 26.5426 5.632C26.5426 5.492 26.5052 5.38 26.4306 5.296C26.3652 5.20267 26.2626 5.156 26.1226 5.156C25.9546 5.156 25.7912 5.21667 25.6326 5.338C25.4832 5.45933 25.3666 5.562 25.2826 5.646L24.3586 10H21.5026L22.7766 3.98H25.0586L25.3106 4.876H25.3946ZM32.5477 10H29.7057L30.9797 3.98H33.8497L32.5477 10ZM34.2137 2.146C34.2137 2.36067 34.167 2.54733 34.0737 2.706C33.9897 2.86467 33.873 3 33.7237 3.112C33.5837 3.224 33.4204 3.308 33.2337 3.364C33.047 3.42 32.8557 3.448 32.6597 3.448C32.2864 3.448 31.9737 3.35933 31.7217 3.182C31.4697 3.00467 31.3437 2.72467 31.3437 2.342C31.3437 2.13667 31.3857 1.95467 31.4697 1.796C31.5537 1.628 31.6657 1.49267 31.8057 1.39C31.955 1.278 32.123 1.194 32.3097 1.138C32.5057 1.082 32.7064 1.054 32.9117 1.054C33.2757 1.054 33.5837 1.14267 33.8357 1.32C34.0877 1.49733 34.2137 1.77267 34.2137 2.146ZM27.072 67.408C26.272 67.792 25.44 68.176 24.576 68.56C23.744 68.912 22.848 69.232 21.888 69.52C20.928 69.776 19.872 69.984 18.72 70.144C17.6 70.304 16.368 70.384 15.024 70.384C10.736 70.384 7.424 69.424 5.088 67.504C2.784 65.584 1.632 62.384 1.632 57.904C1.632 55.312 2.032 52.88 2.832 50.608C3.632 48.304 4.816 46.304 6.384 44.608C7.952 42.88 9.888 41.52 12.192 40.528C14.496 39.536 17.136 39.04 20.112 39.04C21.52 39.04 22.8 39.136 23.952 39.328C25.136 39.52 26.192 39.776 27.12 40.096C28.08 40.384 28.928 40.704 29.664 41.056C30.432 41.408 31.12 41.744 31.728 42.064L30 50.992H21.36C21.392 50.672 21.424 50.256 21.456 49.744C21.52 49.232 21.568 48.72 21.6 48.208C21.632 47.664 21.664 47.136 21.696 46.624C21.728 46.112 21.744 45.68 21.744 45.328C21.744 45.072 21.728 44.784 21.696 44.464C21.664 44.112 21.584 43.776 21.456 43.456C21.328 43.136 21.12 42.88 20.832 42.688C20.576 42.464 20.224 42.352 19.776 42.352C18.944 42.352 18.176 42.704 17.472 43.408C16.8 44.08 16.192 44.992 15.648 46.144C15.104 47.264 14.624 48.544 14.208 49.984C13.792 51.424 13.44 52.896 13.152 54.4C12.896 55.872 12.688 57.328 12.528 58.768C12.4 60.208 12.336 61.472 12.336 62.56C12.336 62.88 12.352 63.28 12.384 63.76C12.416 64.24 12.512 64.704 12.672 65.152C12.832 65.6 13.072 65.984 13.392 66.304C13.744 66.624 14.208 66.784 14.784 66.784C15.776 66.784 16.736 66.176 17.664 64.96C18.592 63.712 19.408 61.504 20.112 58.336H28.992L27.072 67.408ZM34.1123 51.136C35.7443 50.336 37.4083 49.76 39.1043 49.408C40.8323 49.024 42.7523 48.832 44.8643 48.832C46.9123 48.832 48.6083 48.992 49.9523 49.312C51.2963 49.632 52.3683 50.096 53.1683 50.704C53.9683 51.312 54.5283 52.032 54.8483 52.864C55.1683 53.696 55.3282 54.64 55.3282 55.696C55.3282 56.304 55.2803 56.96 55.1843 57.664C55.1203 58.368 55.0403 58.96 54.9443 59.44L52.6883 70H44.9603L44.0963 66.928H43.8083C42.7843 68.048 41.5843 68.912 40.2083 69.52C38.8643 70.096 37.5203 70.384 36.1763 70.384C35.4083 70.384 34.6563 70.272 33.9203 70.048C33.1843 69.824 32.5283 69.488 31.9523 69.04C31.3763 68.56 30.9123 67.968 30.5602 67.264C30.2082 66.528 30.0322 65.648 30.0322 64.624C30.0322 62.96 30.4803 61.648 31.3763 60.688C32.3043 59.696 33.5043 58.96 34.9763 58.48C36.4803 57.968 38.1603 57.648 40.0163 57.52C41.9043 57.392 43.7923 57.328 45.6803 57.328C45.7443 57.008 45.8243 56.56 45.9203 55.984C46.0163 55.376 46.0643 54.848 46.0643 54.4C46.0643 53.824 45.9043 53.296 45.5843 52.816C45.2963 52.304 44.6723 52.048 43.7123 52.048C42.5923 52.048 41.7603 52.384 41.2163 53.056C40.7043 53.696 40.3683 54.48 40.2083 55.408H33.2003L34.1123 51.136ZM45.1523 59.584H44.2883C43.3603 59.584 42.5603 59.712 41.8883 59.968C41.2483 60.192 40.7203 60.496 40.3043 60.88C39.9203 61.264 39.6323 61.696 39.4403 62.176C39.2483 62.656 39.1523 63.136 39.1523 63.616C39.1523 64.384 39.3443 64.96 39.7283 65.344C40.1443 65.728 40.6243 65.92 41.1683 65.92C41.8403 65.92 42.4963 65.68 43.1363 65.2C43.8083 64.72 44.2243 64.08 44.3843 63.28L45.1523 59.584ZM66.4526 70H56.6606L63.4766 37.744H73.3166L66.4526 70ZM92.5151 68.848C91.1711 69.392 89.7471 69.776 88.2431 70C86.7711 70.256 85.0911 70.384 83.2031 70.384C81.5391 70.384 80.0031 70.224 78.5951 69.904C77.2191 69.552 76.0191 69.008 74.9951 68.272C73.9711 67.536 73.1711 66.592 72.5951 65.44C72.0191 64.256 71.7311 62.832 71.7311 61.168C71.7311 59.44 72.0191 57.84 72.5951 56.368C73.2031 54.864 74.0991 53.552 75.2831 52.432C76.4991 51.312 78.0351 50.432 79.8911 49.792C81.7471 49.152 83.9551 48.832 86.5151 48.832C88.5951 48.832 90.4031 49.008 91.9391 49.36C93.4751 49.68 94.7391 50.432 95.7311 51.616L94.3871 57.76H87.8591C87.8911 57.216 87.9231 56.736 87.9551 56.32C87.9871 55.904 88.0031 55.44 88.0031 54.928C88.0031 53.904 87.8911 53.184 87.6671 52.768C87.4431 52.32 87.0751 52.096 86.5631 52.096C85.6671 52.096 84.8831 52.544 84.2111 53.44C83.5391 54.304 82.9791 55.36 82.5311 56.608C82.1151 57.824 81.7951 59.12 81.5711 60.496C81.3791 61.84 81.2831 62.992 81.2831 63.952C81.2831 64.304 81.2991 64.672 81.3311 65.056C81.3631 65.408 81.4271 65.744 81.5231 66.064C81.6511 66.384 81.8111 66.64 82.0031 66.832C82.1951 67.024 82.4671 67.12 82.8191 67.12C83.1391 67.12 83.5071 67.024 83.9231 66.832C84.3391 66.64 84.7391 66.352 85.1231 65.968C85.5071 65.552 85.8751 65.024 86.2271 64.384C86.5791 63.744 86.8511 62.976 87.0431 62.08H93.9071L92.5151 68.848ZM114.138 49.36H123.93L119.514 70H111.738L110.874 66.928H110.586C109.754 67.92 108.618 68.752 107.178 69.424C105.77 70.064 104.346 70.384 102.906 70.384C100.986 70.384 99.4824 69.904 98.3944 68.944C97.3064 67.952 96.7624 66.672 96.7624 65.104C96.7624 64.304 96.8904 63.312 97.1464 62.128C97.4344 60.912 97.6904 59.776 97.9144 58.72L99.9304 49.36H109.674L107.274 60.592C107.21 60.848 107.146 61.152 107.082 61.504C107.018 61.856 106.954 62.208 106.89 62.56C106.826 62.88 106.762 63.2 106.698 63.52C106.666 63.808 106.65 64.048 106.65 64.24C106.65 64.72 106.746 65.136 106.938 65.488C107.162 65.808 107.546 65.968 108.09 65.968C108.666 65.968 109.21 65.776 109.722 65.392C110.234 65.008 110.634 64.64 110.922 64.288L114.138 49.36ZM133.625 70H123.832L130.648 37.744H140.489L133.625 70ZM141.831 51.136C143.463 50.336 145.127 49.76 146.823 49.408C148.551 49.024 150.471 48.832 152.583 48.832C154.631 48.832 156.327 48.992 157.671 49.312C159.015 49.632 160.087 50.096 160.887 50.704C161.687 51.312 162.247 52.032 162.567 52.864C162.887 53.696 163.047 54.64 163.047 55.696C163.047 56.304 162.999 56.96 162.903 57.664C162.839 58.368 162.759 58.96 162.663 59.44L160.407 70H152.679L151.815 66.928H151.527C150.503 68.048 149.303 68.912 147.927 69.52C146.583 70.096 145.239 70.384 143.895 70.384C143.127 70.384 142.375 70.272 141.639 70.048C140.903 69.824 140.247 69.488 139.671 69.04C139.095 68.56 138.631 67.968 138.279 67.264C137.927 66.528 137.751 65.648 137.751 64.624C137.751 62.96 138.199 61.648 139.095 60.688C140.023 59.696 141.223 58.96 142.695 58.48C144.199 57.968 145.879 57.648 147.735 57.52C149.623 57.392 151.511 57.328 153.399 57.328C153.463 57.008 153.543 56.56 153.639 55.984C153.735 55.376 153.783 54.848 153.783 54.4C153.783 53.824 153.623 53.296 153.303 52.816C153.015 52.304 152.391 52.048 151.431 52.048C150.311 52.048 149.479 52.384 148.935 53.056C148.423 53.696 148.087 54.48 147.927 55.408H140.919L141.831 51.136ZM152.871 59.584H152.007C151.079 59.584 150.279 59.712 149.607 59.968C148.967 60.192 148.439 60.496 148.023 60.88C147.639 61.264 147.351 61.696 147.159 62.176C146.967 62.656 146.871 63.136 146.871 63.616C146.871 64.384 147.063 64.96 147.447 65.344C147.863 65.728 148.343 65.92 148.887 65.92C149.559 65.92 150.215 65.68 150.855 65.2C151.527 64.72 151.943 64.08 152.103 63.28L152.871 59.584ZM166.317 49.36C167.501 49.104 168.541 48.816 169.437 48.496C170.333 48.176 171.149 47.776 171.885 47.296C172.653 46.816 173.373 46.224 174.045 45.52C174.749 44.816 175.501 43.952 176.301 42.928H181.245L179.853 49.36H183.597L182.973 52.576H179.181L177.213 61.936C177.053 62.672 176.925 63.328 176.829 63.904C176.733 64.48 176.685 64.928 176.685 65.248C176.685 65.888 176.909 66.288 177.357 66.448C177.837 66.608 178.717 66.688 179.997 66.688L179.277 70C179.053 70.064 178.701 70.112 178.221 70.144C177.773 70.176 177.261 70.208 176.685 70.24C176.141 70.304 175.565 70.336 174.957 70.336C174.381 70.368 173.869 70.384 173.421 70.384C172.621 70.384 171.837 70.32 171.069 70.192C170.301 70.096 169.613 69.888 169.005 69.568C168.397 69.216 167.901 68.72 167.517 68.08C167.165 67.44 166.989 66.576 166.989 65.488C166.989 65.104 167.005 64.624 167.037 64.048C167.101 63.472 167.213 62.832 167.373 62.128L169.389 52.576H165.645L166.317 49.36ZM197.604 48.832C201.412 48.832 204.18 49.504 205.908 50.848C207.732 52.256 208.644 54.592 208.644 57.856C208.644 59.872 208.308 61.696 207.636 63.328C206.964 64.928 206.02 66.256 204.804 67.312C202.372 69.36 198.852 70.384 194.244 70.384C190.308 70.384 187.492 69.632 185.796 68.128C183.972 66.56 183.06 64.208 183.06 61.072C183.06 58.992 183.476 57.104 184.308 55.408C185.172 53.712 186.404 52.304 188.004 51.184C190.34 49.616 193.54 48.832 197.604 48.832ZM194.34 67.12C195.14 67.12 195.828 66.672 196.404 65.776C197.012 64.88 197.492 63.792 197.844 62.512C198.196 61.2 198.452 59.856 198.612 58.48C198.804 57.072 198.9 55.856 198.9 54.832C198.9 53.936 198.804 53.264 198.612 52.816C198.452 52.336 198.084 52.096 197.508 52.096C196.644 52.096 195.892 52.56 195.252 53.488C194.644 54.416 194.148 55.52 193.764 56.8C193.38 58.08 193.092 59.392 192.9 60.736C192.74 62.08 192.66 63.168 192.66 64C192.66 66.08 193.22 67.12 194.34 67.12ZM213.982 49.36H221.806L222.526 52.96H222.862C223.598 51.808 224.542 50.832 225.694 50.032C226.846 49.232 228.366 48.832 230.254 48.832C230.382 48.832 230.574 48.848 230.83 48.88C231.118 48.88 231.422 48.928 231.742 49.024C232.094 49.088 232.446 49.2 232.798 49.36C233.182 49.488 233.55 49.68 233.902 49.936L231.79 59.824H226.558C226.494 57.84 226.318 56.464 226.03 55.696C225.742 54.896 225.278 54.496 224.638 54.496C224.318 54.496 223.966 54.576 223.582 54.736C223.23 54.864 222.862 55.168 222.478 55.648L219.406 70H209.614L213.982 49.36Z" fill="#1804FF"/>
</svg>
